<mxfile host="65bd71144e">
    <diagram id="FtyZWpv0tqhQstQxQz7Y" name="Page-1">
        <mxGraphModel dx="1904" dy="602" grid="1" gridSize="10" guides="1" tooltips="1" connect="1" arrows="1" fold="1" page="1" pageScale="1" pageWidth="850" pageHeight="1100" math="0" shadow="0">
            <root>
                <mxCell id="0"/>
                <mxCell id="1" parent="0"/>
                <mxCell id="2" value="&lt;font color=&quot;#000000&quot; style=&quot;font-size: 22px&quot;&gt;Server&lt;/font&gt;" style="shape=ext;double=1;rounded=1;whiteSpace=wrap;html=1;fillColor=#CC99FF;strokeColor=#b85450;" vertex="1" parent="1">
                    <mxGeometry x="680" y="270" width="120" height="80" as="geometry"/>
                </mxCell>
                <mxCell id="3" value="&lt;font color=&quot;#000000&quot; style=&quot;font-size: 22px&quot;&gt;Client&lt;/font&gt;" style="shape=ext;double=1;rounded=1;whiteSpace=wrap;html=1;fillColor=#CC99FF;" vertex="1" parent="1">
                    <mxGeometry x="-150" y="270" width="120" height="80" as="geometry"/>
                </mxCell>
                <mxCell id="4" value="" style="line;strokeWidth=2;direction=south;html=1;fontSize=22;fontColor=#000000;fillColor=#CC99FF;" vertex="1" parent="1">
                    <mxGeometry x="-95" y="350" width="10" height="640" as="geometry"/>
                </mxCell>
                <mxCell id="6" value="" style="line;strokeWidth=2;direction=south;html=1;fontSize=22;fontColor=#000000;fillColor=#CC99FF;" vertex="1" parent="1">
                    <mxGeometry x="735" y="350" width="10" height="650" as="geometry"/>
                </mxCell>
                <mxCell id="7" value="" style="edgeStyle=segmentEdgeStyle;endArrow=classic;html=1;fontSize=22;fontColor=#000000;exitX=0.09;exitY=0.515;exitDx=0;exitDy=0;exitPerimeter=0;entryX=0.09;entryY=0.5;entryDx=0;entryDy=0;entryPerimeter=0;" edge="1" parent="1" source="4" target="6">
                    <mxGeometry width="50" height="50" relative="1" as="geometry">
                        <mxPoint x="380" y="480" as="sourcePoint"/>
                        <mxPoint x="720" y="390" as="targetPoint"/>
                    </mxGeometry>
                </mxCell>
                <mxCell id="8" value="&lt;pre class=&quot;newpage&quot;&gt;&lt;font style=&quot;font-size: 18px&quot;&gt;ClientHello&lt;/font&gt;&lt;/pre&gt;" style="text;html=1;align=left;verticalAlign=middle;resizable=0;points=[];autosize=1;strokeColor=none;fillColor=none;fontSize=22;fontColor=#000000;" vertex="1" parent="1">
                    <mxGeometry x="-85" y="345" width="130" height="80" as="geometry"/>
                </mxCell>
                <mxCell id="9" value="" style="edgeStyle=segmentEdgeStyle;endArrow=classic;html=1;fontSize=18;fontColor=#000000;" edge="1" parent="1" target="4">
                    <mxGeometry width="50" height="50" relative="1" as="geometry">
                        <mxPoint x="740" y="600" as="sourcePoint"/>
                        <mxPoint x="430" y="430" as="targetPoint"/>
                        <Array as="points">
                            <mxPoint x="740" y="570"/>
                        </Array>
                    </mxGeometry>
                </mxCell>
                <mxCell id="10" value="&lt;pre class=&quot;newpage&quot; style=&quot;font-size: 17px&quot;&gt;&lt;pre&gt;ServerHello&lt;br/&gt;                                                 Certificate*&lt;br/&gt;                                           ServerKeyExchange*&lt;br/&gt;                                          CertificateRequest*&lt;br/&gt;                                     ServerHelloDone&lt;/pre&gt;&lt;/pre&gt;" style="text;html=1;align=right;verticalAlign=middle;resizable=0;points=[];autosize=1;strokeColor=none;fillColor=none;fontSize=18;fontColor=#000000;" vertex="1" parent="1">
                    <mxGeometry x="90" y="440" width="640" height="150" as="geometry"/>
                </mxCell>
                <mxCell id="11" value="&lt;pre&gt;Certificate*&lt;br/&gt;ClientKeyExchange&lt;br/&gt;CertificateVerify*&lt;br/&gt;[ChangeCipherSpec]&lt;br/&gt;Finished &lt;/pre&gt;" style="text;html=1;align=left;verticalAlign=middle;resizable=0;points=[];autosize=1;strokeColor=none;fillColor=none;fontSize=18;fontColor=#000000;" vertex="1" parent="1">
                    <mxGeometry x="-85" y="625" width="210" height="150" as="geometry"/>
                </mxCell>
                <mxCell id="12" value="" style="edgeStyle=segmentEdgeStyle;endArrow=classic;html=1;fontSize=18;fontColor=#000000;exitX=0.637;exitY=0.432;exitDx=0;exitDy=0;exitPerimeter=0;" edge="1" parent="1" source="4">
                    <mxGeometry width="50" height="50" relative="1" as="geometry">
                        <mxPoint x="330" y="710" as="sourcePoint"/>
                        <mxPoint x="740" y="760" as="targetPoint"/>
                        <Array as="points">
                            <mxPoint x="730" y="758"/>
                            <mxPoint x="730" y="760"/>
                        </Array>
                    </mxGeometry>
                </mxCell>
                <mxCell id="13" value="&lt;pre&gt;[ChangeCipherSpec]&lt;br/&gt;                                            Finished&lt;/pre&gt;" style="text;html=1;align=right;verticalAlign=middle;resizable=0;points=[];autosize=1;strokeColor=none;fillColor=none;fontSize=18;fontColor=#000000;" vertex="1" parent="1">
                    <mxGeometry x="155" y="810" width="580" height="80" as="geometry"/>
                </mxCell>
                <mxCell id="14" value="" style="edgeStyle=segmentEdgeStyle;endArrow=classic;html=1;fontSize=18;fontColor=#000000;" edge="1" parent="1" target="4">
                    <mxGeometry width="50" height="50" relative="1" as="geometry">
                        <mxPoint x="740" y="880" as="sourcePoint"/>
                        <mxPoint x="490" y="850" as="targetPoint"/>
                    </mxGeometry>
                </mxCell>
                <mxCell id="15" value="&lt;pre&gt;Application Data              &amp;lt;-------&amp;gt;                 Application Data&lt;/pre&gt;" style="text;html=1;align=center;verticalAlign=middle;resizable=0;points=[];autosize=1;strokeColor=none;fillColor=none;fontSize=18;fontColor=#000000;" vertex="1" parent="1">
                    <mxGeometry x="-70" y="970" width="800" height="60" as="geometry"/>
                </mxCell>
            </root>
        </mxGraphModel>
    </diagram>
</mxfile>